<?xml version="1.0" encoding="UTF-8"?>
<svg id="_图层_2" data-name="图层 2" xmlns="http://www.w3.org/2000/svg" viewBox="0 0 84.57 49.59">
  <defs>
    <style>
      .cls-1 {
        fill: #c90000;
      }
    </style>
  </defs>
  <g id="_图层_1-2" data-name="图层 1">
    <path class="cls-1" d="M6.54,49.59c4.22-7.91,8.54-13.76,11.81-17.71,3.51-4.25,5.64-6.12,8-7.62,5.06-3.23,9.94-4.1,12.57-4.38h32.76c-2.54,3.81-5.08,7.62-7.62,11.43h-18.48c-1.74.04-4.92.35-8.38,2.1-3.94,1.99-7.33,4.82-8.35,6.29-3.14,3.93-3.81,6.6-5.71,9.9H6.54Z"/>
    <path class="cls-1" d="M36.63,49.59h16.19c1.59-2.67,3.17-5.33,4.76-8-1.34-.48-6.09-1.98-11.62,0-5.95,2.13-8.69,6.83-9.33,8Z"/>
    <path class="cls-1" d="M84.57,0c-3.11,4.44-6.22,8.06-9.33,12.5-19.17-.32-38.35.2-57.52-.12-2.52-.45-7.5-1.72-12.19-5.71C2.79,4.34,1.06,1.84,0,0h84.57Z"/>
  </g>
</svg>