<?xml version="1.0" encoding="UTF-8"?>
<svg id="_图层_2" data-name="图层 2" xmlns="http://www.w3.org/2000/svg" viewBox="0 0 185.09 236.12">
  <defs>
    <style>
      .cls-1 {
        fill: #feac0a;
      }

      .cls-2 {
        fill: #e51718;
      }
    </style>
  </defs>
  <g id="_图层_1-2" data-name="图层 1">
    <g>
      <path class="cls-2" d="M84.67,100.18v33.31c-2.54,3.49-5.7,6.14-9.36,7.88-9.25,4.37-22.66,3.54-27.88-4.67-3.49-5.48-3.89-14.27,1.48-19.51,4.99-4.87,12.78-4.45,17.9-2,3.98,1.91,6.33,5.01,7.6,7.27l.34.61.06-.69c.26-2.95.13-8.67-3.64-13.8-4.78-6.51-12.16-7.57-15.33-8.02-1.29-.19-12.91-1.61-21.97,6.18-10.99,9.45-9.95,26.44-6.57,35.55,4.43,11.92,16.38,21.06,31.97,24.43l.08.02,23.35-13.66-.1.45L0,236.12V105.21l46.63-27.3,38.04,22.27Z"/>
      <polygon class="cls-2" points="83.47 83.47 46.63 61.9 0 89.2 0 0 83.47 83.47"/>
    </g>
    <g>
      <path class="cls-1" d="M100.42,100.18v33.31c2.54,3.49,5.7,6.14,9.36,7.88,9.25,4.37,22.66,3.54,27.88-4.67,3.49-5.48,3.89-14.27-1.48-19.51-4.99-4.87-12.78-4.45-17.9-2-3.98,1.91-6.33,5.01-7.6,7.27l-.34.61-.06-.69c-.26-2.95-.13-8.67,3.64-13.8,4.78-6.51,12.16-7.57,15.33-8.02,1.29-.19,12.91-1.61,21.97,6.18,10.99,9.45,9.95,26.44,6.57,35.55-4.43,11.92-16.38,21.06-31.97,24.43l-.08.02-23.35-13.66.1.45,82.59,82.6V105.21s-46.63-27.3-46.63-27.3l-38.04,22.27Z"/>
      <polygon class="cls-1" points="101.62 83.47 138.45 61.9 185.09 89.2 185.09 0 101.62 83.47"/>
    </g>
  </g>
</svg>