<?xml version="1.0" encoding="UTF-8"?>
<svg xmlns="http://www.w3.org/2000/svg" viewBox="0 0 224 224">
  <defs>
    <style>
      .line { fill: #fff; }
      .accent { fill: #00fff0; }
    </style>
  </defs>
  <g transform="translate(30 30)">
    <path class="line" d="M84,164H0V0h84v42.83l-39.17,39.17,39.17,39.17v42.83ZM4,160h76v-37.17l-40.83-40.83,40.83-40.83V4H4v156Z"/>
    <polygon class="line" points="164 162 160 162 160 122.83 119.17 82 160 41.17 160 2 164 2 164 42.83 124.83 82 164 121.17 164 162"/>
    <path class="line" d="M82,124.83l-42.83-42.83,42.83-42.83,42.83,42.83-42.83,42.83ZM44.83,82l37.17,37.17,37.17-37.17-37.17-37.17-37.17,37.17Z"/>
    <path class="accent" d="M82,94.83l-12.83-12.83,12.83-12.83,12.83,12.83-12.83,12.83ZM74.83,82l7.17,7.17,7.17-7.17-7.17-7.17-7.17,7.17Z"/>
  </g>
</svg>
