<?xml version="1.0" encoding="UTF-8"?>
<svg id="_图层_2" data-name="图层 2" xmlns="http://www.w3.org/2000/svg" viewBox="0 0 164 164">
  <defs>
    <style>
      .cls-1 {
        fill: #fff;
      }

      .cls-2 {
        fill: #00fff0;
      }
    </style>
  </defs>
  <g id="_图层_1-2" data-name="图层 1">
    <g>
      <path class="cls-1" d="M84,164H0V0h84v42.83l-39.17,39.17,39.17,39.17v42.83ZM4,160h76v-37.17l-40.83-40.83,40.83-40.83V4H4v156Z"/>
      <polygon class="cls-1" points="164 162 160 162 160 122.83 119.17 82 160 41.17 160 2 164 2 164 42.83 124.83 82 164 121.17 164 162"/>
      <path class="cls-1" d="M82,124.83l-42.83-42.83,42.83-42.83,42.83,42.83-42.83,42.83ZM44.83,82l37.17,37.17,37.17-37.17-37.17-37.17-37.17,37.17Z"/>
      <path class="cls-2" d="M82,94.83l-12.83-12.83,12.83-12.83,12.83,12.83-12.83,12.83ZM74.83,82l7.17,7.17,7.17-7.17-7.17-7.17-7.17,7.17Z"/>
    </g>
  </g>
</svg>