<?xml version="1.0" encoding="UTF-8"?>
<svg id="_图层_2" data-name="图层 2" xmlns="http://www.w3.org/2000/svg" viewBox="0 0 52.49 51.22">
  <defs>
    <style>
      .cls-1 {
        fill: #7f7f7f;
      }

      .cls-2 {
        fill: #bcbcbc;
      }
    </style>
  </defs>
  <g id="_图层_1-2" data-name="图层 1">
    <g>
      <g>
        <path class="cls-2" d="M24.09,27.71c-.66-2.09-1.33-4.19-1.98-6.28-.24-.78-.45-1.58-.68-2.37-.02,0-.03,0-.05.01-.11.44-.2.88-.32,1.31-.72,2.49-1.48,4.96-2.28,7.43-.04.13-.13.26.13.25,1.69,0,3.38,0,5.07,0,.18,0,.22-.06.15-.21-.02-.04-.03-.09-.04-.14Z"/>
        <path class="cls-2" d="M42.44.25H10.05C4.64.25.25,4.64.25,10.05v31.24c0,5.41,4.39,9.8,9.8,9.8h32.39c5.41,0,9.8-4.39,9.8-9.8V10.05c0-5.41-4.39-9.8-9.8-9.8ZM32.12,37.85c-1.5,0-3,0-4.5,0-.24,0-.32-.16-.39-.35-.53-1.53-1.06-3.07-1.58-4.6q-.15-.45-.64-.45c-2.42,0-4.85,0-7.27,0-.22,0-.33.05-.4.28-.49,1.56-1,3.12-1.5,4.68-.13.41-.18.45-.62.45-1.24,0-2.49,0-3.73,0-.46,0-.52-.09-.37-.53,1.78-5.14,3.57-10.27,5.35-15.41.58-1.67,1.19-3.33,1.72-5.02.15-.47.18-.95.19-1.44,0-.41.02-.43.44-.43.87,0,1.73,0,2.6,0,.86,0,1.71,0,2.57,0q.4,0,.53.37c2.59,7.31,5.18,14.63,7.78,21.94.02.07.05.14.07.21.05.22-.02.31-.25.31ZM39.15,37.97c-1.29,0-2.59,0-3.88,0-.43,0-.5-.07-.5-.5,0-2.73,0-5.46,0-8.18,0-2.72,0-5.44,0-8.16,0-.45.04-.49.49-.49,1.31,0,2.62,0,3.93,0,.38,0,.43.05.43.43,0,5.48,0,10.96,0,16.44,0,.42-.05.47-.47.47ZM37.33,18.82c-1.74.04-2.83-1.21-2.8-2.73,0-1.56,1.16-2.72,2.71-2.71,1.61,0,2.68,1.08,2.68,2.69,0,1.58-1.1,2.72-2.59,2.75Z"/>
      </g>
      <path class="cls-1" d="M42.77,51.22H9.71c-5.36,0-9.71-4.36-9.71-9.71V9.71C0,4.36,4.36,0,9.71,0h33.06c5.36,0,9.71,4.36,9.71,9.71v31.8c0,5.36-4.36,9.71-9.71,9.71ZM9.71.5C4.64.5.5,4.64.5,9.71v31.8c0,5.08,4.13,9.21,9.21,9.21h33.06c5.08,0,9.21-4.13,9.21-9.21V9.71c0-5.08-4.13-9.21-9.21-9.21H9.71Z"/>
    </g>
  </g>
</svg>