<?xml version="1.0" encoding="UTF-8"?>
<svg id="_图层_2" data-name="图层 2" xmlns="http://www.w3.org/2000/svg" viewBox="0 0 50.08 51.06">
  <defs>
    <style>
      .cls-1 {
        fill: #bcbcbc;
      }
    </style>
  </defs>
  <g id="_图层_1-2" data-name="图层 1">
    <g>
      <path class="cls-1" d="M11,51.06c-.06-.23.15-.29.26-.4,2-2.01,4.01-4.03,6.03-6.02.34-.34.5-.7.49-1.19-.01-3.99,0-7.97-.02-11.96,0-.38.08-.5.48-.49,1.51.03,3.02.02,4.53,0,.35,0,.48.05.48.45-.02,4.17-.01,8.34-.01,12.51,0,.18.02.36-.12.51-.54.6-1.07,1.22-1.61,1.82-.18-.11-.1-.25-.1-.37,0-1.2-.01-2.39,0-3.59,0-.3-.07-.42-.38-.39-.46.03-1.07-.15-1.35.08-.3.24-.09.87-.09,1.33-.01,1.58-.01,3.16,0,4.73,0,.31-.09.53-.29.75-.65.73-1.28,1.48-1.92,2.22h-6.38ZM20.48,36.48q.93,0,.93-.93t-.9-.91-.93.93.9.91ZM21.41,39.22q0-.92-.92-.92-.91,0-.91.89,0,.92.92.92.9,0,.9-.89Z"/>
      <path class="cls-1" d="M19.87,51.06c-.05-.17.11-.23.18-.31,1.41-1.62,2.79-3.25,4.24-4.83.56-.61.83-1.22.78-2.04-.06-1.01-.01-1.01.97-1.01.83,0,.83,0,.83.82,0,2.46-.02,4.91-.02,7.37h-6.98Z"/>
      <path class="cls-1" d="M28.75,51.06c-.01-1.59-.02-3.18-.03-4.77,0-.99.01-1.99,0-2.98,0-.33.05-.49.42-.44.45.05,1.07-.19,1.33.1.23.25.07.85.08,1.29.04,2.08-.27,1.42,1.21,2.92,1.15,1.17,2.32,2.32,3.47,3.49.1.1.36.15.21.4h-6.68Z"/>
      <path class="cls-1" d="M45.75,32.76c-.67.43-.66,1.04-.65,1.67.02,1.16,0,2.33.01,3.49,0,.31-.08.39-.38.38-1.26-.02-2.53,0-3.79,0-.22,0-.42-.06-.62-.15-2.37-1.09-4.58-2.46-6.79-3.83-.21-.13-.29-.27-.29-.52,0-1.81.01-3.62,0-5.43,0-.3.09-.44.37-.54,1.14-.44,2.28-.9,3.42-1.36.64-.26.79-.48.79-1.16,0-1.08,0-2.16,0-3.24,0-.33-.09-.61-.29-.87-.74-.98-1.47-1.97-2.22-2.94-.16-.21-.23-.42-.23-.68,0-3.21,0-6.41,0-9.62,0-.24.06-.44.2-.64,1.17-1.63,2.34-3.27,3.51-4.9.1-.14.14-.37.44-.22,2.01.97,3.97,1.99,5.54,3.64,2.57,2.71,3.9,5.92,3.98,9.65.03,1.45-.43,2.74-1.44,3.81-.4.42-.45.84-.22,1.36.92,2.04,1.82,4.08,2.73,6.13.08.18.15.36.25.58-.71,0-1.37,0-2.04,0-.76,0-1.09.34-1.1,1.1,0,.73-.02,1.46,0,2.19.01.32-.1.39-.4.37-1.21-.09-2.29-.49-3.22-1.29-.11-.1-.22-.2-.34-.29-.41-.32-.93-.29-1.26.06-.34.36-.33.91.06,1.29.93.92,2.04,1.52,3.31,1.84.19.05.37.09.65.15ZM46.02,18.75c0-.45,0-.9,0-1.34-.01-.61-.35-.97-.89-.98-.55,0-.91.38-.92,1.01,0,.46-.02.93,0,1.39.01.27-.08.34-.34.33-.48-.02-.96-.01-1.44,0-.58.02-.96.39-.95.93,0,.52.37.87.94.88.88.01,1.76.01,2.64,0,.61,0,.94-.34.95-.96.01-.41,0-.83,0-1.25ZM36.92,9.05c0,.17,0,.33,0,.5.03.46-.21,1.1.09,1.33.31.23.92.06,1.4.09.22.01.33-.04.32-.3-.01-1.03,0-2.06,0-3.09,0-.16,0-.29-.23-.29-.51.02-1.11-.14-1.5.09-.28.16-.06.83-.08,1.27,0,.13,0,.27,0,.4ZM37.86,12.77q-.95,0-.95.94t.87.87.95-.94-.87-.87ZM37.83,16.43q-.91,0-.91.93,0,.89.9.89.91,0,.91-.93,0-.89-.9-.89Z"/>
      <path class="cls-1" d="M17.07,17.87c-.13.04-.3.09-.47.15-.9.33-1.8.67-2.7,1.01-.24.09-.38.08-.5-.17-.21-.41-.44-.82-.69-1.21-.15-.24-.14-.38.1-.57.74-.58,1.46-1.2,2.2-1.79.37-.29.57-.63.5-1.12-.03-.18-.05-.37-.01-.55.19-.88-.22-1.44-.9-1.92-.64-.45-1.21-.99-1.82-1.47-.2-.15-.22-.27-.09-.49.31-.49.49-1.21.92-1.42.42-.21,1.03.3,1.56.47.49.16.96.36,1.44.54.12.05.25.1.38.12.69.12,2.28-1.05,2.4-1.75.15-.93.32-1.86.46-2.8.04-.26.12-.37.4-.35.45.03.9.03,1.34,0,.34-.02.46.09.5.43.14.97.3,1.93.48,2.9.14.76,1.89,1.75,2.61,1.49.93-.33,1.87-.68,2.79-1.04.28-.11.41-.06.54.2.26.5.8,1.01.76,1.47-.05.46-.78.74-1.2,1.11-.39.34-.79.66-1.19.98-.08.06-.16.12-.22.2-.49.52-.38,2.49.18,2.95.75.63,1.51,1.25,2.27,1.86.2.16.26.28.11.52-.32.48-.49,1.23-.92,1.42-.43.19-1.05-.31-1.6-.5-.47-.16-.94-.33-1.39-.53-.44-.19-.83-.16-1.21.14-.1.08-.21.18-.33.21-1.04.31-1.28,1.12-1.37,2.06-.06.68-.22,1.34-.31,2.02-.04.29-.16.39-.45.37-.46-.03-.93-.02-1.39,0-.25,0-.34-.07-.38-.32-.14-.92-.32-1.83-.45-2.75-.08-.54-.28-.93-.81-1.14-.3-.12-.57-.33-.85-.51-.19-.12-.38-.2-.65-.22ZM20.94,10.05c-2.01,0-3.65,1.62-3.65,3.62,0,1.99,1.62,3.65,3.62,3.67,2.01.02,3.67-1.63,3.66-3.66,0-2.02-1.61-3.62-3.63-3.63Z"/>
      <path class="cls-1" d="M34.25,25.62c-.69.27-1.37.56-2.07.82-.52.2-.77.54-.74,1.1.02.45,0,.9,0,1.35,0,.24-.07.31-.31.31-3.12,0-6.25,0-9.37,0-.3,0-.36-.11-.36-.38.01-1.28.01-2.56,0-3.84,0-.29.09-.37.37-.35.3.02.6.01.9,0,.58-.02.89-.28.99-.84.19-1.06.35-2.13.54-3.19.11-.63.5-.85,1.09-.63.96.36,1.92.73,2.88,1.08.71.26,1.08.15,1.43-.53.19-.35.4-.48.8-.47,1.21.03,2.43.02,3.64,0,.27,0,.42.08.56.29.25.35.48.73.78,1.03.57.57.67,1.25.62,2-.02.29-.1.36-.38.36-.96-.01-1.93,0-2.89-.01-.33,0-.44.09-.41.42.05.46-.19,1.07.1,1.33.25.23.85.07,1.3.07.16,0,.33,0,.49,0,0,.03,0,.06.01.09ZM26.88,24.59q0-.87-.88-.87t-.94.95.88.86.94-.95ZM30.54,24.59q0-.87-.87-.87-.95,0-.95.95,0,.87.87.87.95,0,.95-.94Z"/>
      <path class="cls-1" d="M36.32,2.73c-.55.77-1.05,1.45-1.52,2.14-.51.75-1.15,1.42-1.51,2.27-.08.18-.2.15-.32.15-.95,0-1.89-.01-2.84,0-.27,0-.33-.16-.43-.33-.51-.86-.75-.95-1.7-.59-.93.35-1.86.7-2.79,1.04-.46.17-.89-.06-.98-.55-.19-1.06-.36-2.13-.55-3.19-.12-.67-.35-.91-1-.94-.3-.02-.35-.12-.35-.38.02-.66.02-1.33,0-1.99,0-.27.05-.37.35-.37,2.19.01,4.39.01,6.58,0,.32,0,.4.09.38.39-.03.4,0,.8,0,1.2,0,.85.29,1.14,1.13,1.14,1.66,0,3.32,0,4.98,0,.15,0,.3,0,.58,0Z"/>
      <path class="cls-1" d="M10.31,26.44c-.93,0-1.86,0-2.79,0-.27,0-.44.04-.6.3-.57.91-1.59,1.28-2.59.98-.93-.28-1.6-1.18-1.61-2.17,0-1.01.67-1.92,1.63-2.2,1.01-.29,2,.08,2.58,1,.13.21.26.29.51.29,1.49-.01,2.99-.02,4.48,0,.33,0,.38-.11.37-.4-.02-.95-.01-1.89-.04-2.84,0-.31.06-.46.4-.43.36.03.73.01,1.09-.01.27-.02.33.08.33.34,0,1.39.02,2.79.02,4.18,0,.62-.34.95-.96.96-.95.01-1.89,0-2.84,0Z"/>
      <path class="cls-1" d="M7.61,10.05c-.8,0-1.59,0-2.39,0-.8,0-1.11-.32-1.11-1.12,0-1.24,0-2.49,0-3.73,0-.24-.07-.37-.28-.51-.95-.6-1.32-1.66-.98-2.68.33-.98,1.3-1.61,2.36-1.52,1.06.09,1.9.87,2.05,1.97.12.92-.22,1.68-1,2.17-.29.18-.35.37-.34.67.01.83.03,1.66,0,2.49-.01.36.11.43.44.42,1.23-.02,2.46,0,3.68-.02.39,0,.49.12.46.48-.03.35-.02.7,0,1.04.02.27-.09.34-.34.34-.85-.01-1.69,0-2.54,0Z"/>
      <path class="cls-1" d="M12.3,14.64c.01.87.01.87-.88.89-2.24.05-4.49.09-6.73.13-.27,0-.44.06-.61.3-.61.84-1.68,1.13-2.62.77C.51,16.37-.07,15.44,0,14.41c.07-.97.78-1.81,1.71-2.03,1.02-.24,2.04.19,2.54,1.12.15.28.31.35.62.34,2.26-.06,4.52-.11,6.78-.16.65-.01.65-.01.65.65,0,.1,0,.2,0,.3Z"/>
      <path class="cls-1" d="M25.06,35.95c0-1.51,0-3.02,0-4.53,0-.31.05-.45.4-.42.46.05,1.07-.19,1.34.09.28.27.08.88.08,1.34.01,1.23.02,2.46,0,3.69,0,.5.14.89.51,1.24.97.93,1.91,1.9,2.86,2.85.08.08.18.16.24.25.2.31.06.57-.31.57-1.58,0-3.16,0-4.73,0-.32,0-.38-.09-.38-.39.02-1.56,0-3.12,0-4.68Z"/>
      <path class="cls-1" d="M28.72,33.56c0-.73.01-1.46,0-2.19,0-.27.05-.38.35-.37.68.02,1.36.02,2.04,0,.29,0,.35.09.35.36-.02.93.03,1.86-.02,2.79-.04.71.19,1.2.84,1.53.59.3.57.34.23.91-.36.6-.73,1.19-1.07,1.79-.13.23-.21.23-.39.05-.71-.72-1.42-1.44-2.15-2.14-.16-.16-.18-.34-.18-.54,0-.73,0-1.46,0-2.19Z"/>
      <path class="cls-1" d="M30.97,18.25q.67-1.41-.49-2.36c-.49-.4-.98-.81-1.58-1.3,1.47,0,2.8,0,4.13,0,.22,0,.23.13.23.29,0,1.03,0,2.05,0,3.08,0,.19-.03.31-.26.3-.66-.01-1.32,0-2.03,0Z"/>
      <path class="cls-1" d="M28.91,12.77c.7-.58,1.3-1.08,1.91-1.58.75-.61.8-.88.32-1.73-.05-.09-.09-.17-.18-.34.74,0,1.42,0,2.1,0,.19,0,.2.13.2.27,0,1.05,0,2.09,0,3.14,0,.2-.07.25-.26.25-1.32,0-2.65,0-4.09,0Z"/>
      <path class="cls-1" d="M22.76,13.7c-.01,1.01-.85,1.81-1.87,1.79-1-.02-1.8-.85-1.78-1.83.02-1.01.85-1.81,1.87-1.79.99.02,1.79.84,1.78,1.84Z"/>
    </g>
  </g>
</svg>