<?xml version="1.0" encoding="UTF-8"?>
<svg id="_图层_2" data-name="图层 2" xmlns="http://www.w3.org/2000/svg" viewBox="0 0 51.52 36.22">
  <defs>
    <style>
      .cls-1 {
        fill: #444;
      }
    </style>
  </defs>
  <g id="_图层_1-2" data-name="图层 1">
    <path class="cls-1" d="M0,32.59V3.62c.31-.48.41-1.04.72-1.54C1.48.86,2.86.15,4.28,0h42.85c2.41.18,4.14,1.87,4.37,4.27-.08,9.47.17,18.98-.13,28.43-.51,2.04-2.16,3.35-4.24,3.5H4.28c-1.41-.15-2.8-.86-3.55-2.08-.31-.5-.41-1.06-.72-1.54ZM46.27,3.02H5.23l17.5,17.45c1.71,1.51,4.17,1.53,5.94.1L46.27,3.02ZM3.02,30.98l12.97-12.91L3.02,5.23v25.75ZM48.48,30.98V5.23l-12.97,12.91,12.97,12.84ZM46.27,33.19l-12.94-12.87c-1.36,1.1-2.41,2.58-3.99,3.43-2.42,1.3-5.45,1.18-7.74-.34-1.29-.86-2.23-2.15-3.43-3.09l-12.94,12.87h41.04Z"/>
  </g>
</svg>