<?xml version="1.0" encoding="UTF-8"?>
<svg id="_图层_2" data-name="图层 2" xmlns="http://www.w3.org/2000/svg" viewBox="0 0 41.78 48.65">
  <defs>
    <style>
      .cls-1 {
        fill: #7f7f7f;
      }

      .cls-2 {
        fill: #bcbcbc;
      }
    </style>
  </defs>
  <g id="_图层_1-2" data-name="图层 1">
    <g>
      <polygon class="cls-1" points="13.97 19.74 20.89 19.74 20.89 14.56 13.56 14.56 13.97 19.74"/>
      <path class="cls-1" d="M20.89,0H0l3.86,43.69,17.03,4.96,17.03-4.96L41.78,0h-20.89ZM34.62,40.99l-13.73,4.1v-5.51h-.03s-10.95-3.33-10.95-3.33l-.63-8.63h5.32l.42,4.64,5.84,1.73h.03v-8.74h-11.82l-1.25-16.4h13.07V3.56h16.86l-3.13,37.43Z"/>
      <polygon class="cls-2" points="27.11 25.24 20.89 25.24 20.89 33.97 26.59 32.25 27.11 25.24"/>
      <polygon class="cls-2" points="20.89 8.85 33.89 8.85 33.37 14.56 20.89 14.56 20.89 19.74 32.85 19.74 31.39 36.46 20.89 39.58 20.89 45.09 34.62 40.99 37.75 3.56 20.89 3.56 20.89 8.85"/>
    </g>
  </g>
</svg>