<?xml version="1.0" encoding="UTF-8"?>
<svg id="_图层_2" data-name="图层 2" xmlns="http://www.w3.org/2000/svg" viewBox="0 0 52.49 51.22">
  <defs>
    <style>
      .cls-1 {
        fill: #7f7f7f;
      }

      .cls-2 {
        fill: #bcbcbc;
      }
    </style>
  </defs>
  <g id="_图层_1-2" data-name="图层 1">
    <g>
      <path class="cls-2" d="M42.44.25H10.05C4.64.25.25,4.64.25,10.05v31.24c0,5.41,4.39,9.8,9.8,9.8h32.39c5.41,0,9.8-4.39,9.8-9.8V10.05c0-5.41-4.39-9.8-9.8-9.8ZM18.96,36.61c0,1.02-.25,1.47-1.33,1.35-.75-.08-1.52-.07-2.28,0-.97.08-1.33-.22-1.31-1.26.07-3.42.02-6.84.02-10.26,0-3.42.03-6.84-.02-10.26-.01-.89.24-1.26,1.15-1.16,1.19.13,2.73-.52,3.5.27.73.74.22,2.25.22,3.42.02,5.97-.01,11.94.03,17.9ZM37.83,37.03c-3.07,1.1-6.19,1.6-9.39.81-7.09-1.74-7.48-10.38-4.12-14.29,2.13-2.47,4.88-3.41,8.01-3.4,1.02,0,1.2-.32,1.17-1.22-.06-1.59.02-3.19-.03-4.79-.03-.82.28-1.07,1.06-1.03.83.05,1.68.06,2.51,0,1-.08,1.38.21,1.36,1.3-.07,3.57-.03,7.15-.03,10.72.02,0,.05,0,.07,0,0,3.57,0,7.15,0,10.72,0,.51.03.94-.61,1.17Z"/>
      <path class="cls-2" d="M32.46,24.18c-1.95.01-3.64.65-4.6,2.41-1.04,1.91-.87,3.92.3,5.73,1.1,1.7,2.9,1.73,4.68,1.67.59-.02.65-.4.65-.85,0-1.33,0-2.66,0-3.99,0-1.29-.04-2.58.01-3.87.03-.79-.28-1.1-1.04-1.1Z"/>
      <path class="cls-1" d="M42.77,51.22H9.71c-5.36,0-9.71-4.36-9.71-9.71V9.71C0,4.36,4.36,0,9.71,0h33.06c5.36,0,9.71,4.36,9.71,9.71v31.8c0,5.36-4.36,9.71-9.71,9.71ZM9.71.5C4.64.5.5,4.64.5,9.71v31.8c0,5.08,4.13,9.21,9.21,9.21h33.06c5.08,0,9.21-4.13,9.21-9.21V9.71c0-5.08-4.13-9.21-9.21-9.21H9.71Z"/>
    </g>
  </g>
</svg>