<?xml version="1.0" encoding="UTF-8"?>
<svg id="_图层_2" data-name="图层 2" xmlns="http://www.w3.org/2000/svg" viewBox="0 0 36.06 48.76">
  <defs>
    <style>
      .cls-1 {
        fill: #bcbcbc;
      }
    </style>
  </defs>
  <g id="_图层_1-2" data-name="图层 1">
    <g>
      <path class="cls-1" d="M22.94,0c.95,1.06,1.33,2.31,1.28,3.7-.07,2.08-1.03,3.78-2.26,5.36-1.22,1.56-2.71,2.84-4.25,4.07-.95.76-1.8,1.62-2.49,2.62-1.34,1.92-1.37,3.88-.27,5.91.61,1.11,1.37,2.11,2.08,3.16.38.57.76,1.14,1.06,1.88-1.05-.91-1.98-1.79-2.87-2.71-1.11-1.15-2.18-2.35-2.92-3.78-.93-1.78-.97-3.51.3-5.16.33-.42.67-.83,1.04-1.21,1.31-1.33,2.82-2.42,4.27-3.59,1.35-1.08,2.68-2.19,3.72-3.6,1.43-1.92,1.87-4.05,1.36-6.38-.02-.09-.03-.18-.05-.27Z"/>
      <path class="cls-1" d="M33.05,41.68c.24.07.42.22.59.37.32.3.34.67.07,1.01-.28.35-.65.6-1.05.8-1.62.81-3.36,1.22-5.13,1.56-3.11.6-6.25.86-9.42.97-3.46.12-6.92-.03-10.36-.35-2.03-.19-4.06-.43-6.06-.84-.45-.09-.88-.23-1.27-.48-.5-.33-.56-.75-.18-1.22.18-.22.4-.41.65-.56,1.8-1.09,3.76-1.7,5.87-1.73.34,0,.69.04,1.07.29-1.31.03-2.46.36-3.58.82-.31.13-.61.29-.88.5-.37.31-.36.58.08.8.73.37,1.51.55,2.3.71,2.43.48,4.89.63,7.37.72,3.16.11,6.32.04,9.47-.17,2.89-.19,5.78-.44,8.6-1.18.49-.13.97-.3,1.41-.56.66-.41.77-.75.44-1.45Z"/>
      <path class="cls-1" d="M19.72,28.39c.44-.47.8-.89,1.05-1.39.63-1.22.55-2.39-.3-3.47-.56-.72-1.15-1.41-1.58-2.22-1.27-2.34-.96-4.66.87-6.59,1.51-1.61,3.41-2.63,5.39-3.5,1.09-.48,2.22-.88,3.37-1.21.07-.02.15-.05.29,0-.39.24-.75.45-1.11.67-1.79,1.11-3.57,2.23-5.11,3.7-.43.41-.8.85-1.13,1.34-.7,1.06-.75,2.16-.16,3.29.38.73.84,1.41,1.35,2.05,1.53,1.92,1.17,3.71-.31,5.33-.73.8-1.59,1.45-2.62,2Z"/>
      <path class="cls-1" d="M12.46,26.78c-1,.3-1.9.56-2.8.85-.63.2-1.25.44-1.81.8-.18.12-.4.24-.38.5.03.26.27.33.48.4,1.01.35,2.06.42,3.11.46,4.95.18,9.87-.12,14.77-.83.85-.12,1.69-.25,2.46-.37-1.41.98-3.04,1.51-4.8,1.77-2.94.43-5.89.68-8.85.71-2.86.03-5.72-.04-8.54-.56-.55-.1-1.09-.24-1.6-.48-.26-.12-.55-.25-.57-.58-.02-.33.25-.51.5-.65,1.09-.61,2.26-1.04,3.46-1.39,1.48-.43,3.3-.69,4.57-.64Z"/>
      <path class="cls-1" d="M11.54,37.69c-.64.68-.56.99.31,1.22,1.21.31,2.47.35,3.71.44,2.42.18,4.8-.16,7.16-.6.18-.03.35-.06.52.05.78.47,1.61.84,2.49,1.21-.44.25-.89.4-1.34.54-4.14,1.33-8.32,1.61-12.55.51-.64-.17-1.26-.41-1.82-.77-.1-.06-.19-.13-.28-.21-.67-.57-.64-1.16.08-1.66.18-.12.37-.24.57-.33.35-.16.72-.3,1.15-.4Z"/>
      <path class="cls-1" d="M10.38,32.39c-.19.19-.4.37-.51.63-.14.3-.08.55.19.75.37.27.81.34,1.25.39,4.31.54,8.59.34,12.83-.52.32-.07.55-.02.8.21.45.41,1.01.68,1.65.95-.65.23-1.25.36-1.85.5-3.41.79-6.87,1.12-10.37.95-1.68-.08-3.34-.26-4.94-.81-.43-.15-.85-.32-1.21-.61-.53-.41-.58-.91-.08-1.35.64-.57,1.39-.93,2.24-1.09h0Z"/>
      <path class="cls-1" d="M36.06,44.13c-.19,1.11-.91,1.69-1.74,2.17-1.35.77-2.83,1.16-4.33,1.47-3.05.63-6.15.86-9.26.95-2.69.08-5.38.04-8.07-.17-1.85-.14-3.7-.33-5.48-.93-.13-.05-.27-.1-.4-.16-.07-.03-.13-.07-.19-.15.66.08,1.32.17,1.98.25,2.05.25,4.12.35,6.19.4,3.11.08,6.22-.04,9.31-.36,3.14-.33,6.27-.79,9.26-1.86.98-.35,1.94-.76,2.73-1.61Z"/>
      <path class="cls-1" d="M29.38,27.24c.15-.29.35-.44.58-.53,1.68-.64,3.32-.62,4.8.52,1.34,1.04,1.65,2.75.81,4.27-.64,1.18-1.66,1.99-2.79,2.66-1.39.82-2.89,1.34-4.44,1.76.1-.25.1-.25.33-.37,1.51-.82,2.96-1.74,4.11-3.05.57-.65,1.04-1.38,1.17-2.25.3-2.06-1.59-3.71-3.7-3.24-.26.06-.52.14-.86.22Z"/>
      <polygon class="cls-1" points="10.38 32.4 10.38 32.38 10.38 32.39 10.38 32.4"/>
    </g>
  </g>
</svg>