<?xml version="1.0" encoding="UTF-8"?>
<svg id="_图层_2" data-name="图层 2" xmlns="http://www.w3.org/2000/svg" viewBox="0 0 51.59 51.68">
  <defs>
    <style>
      .cls-1 {
        fill: #bcbcbc;
      }
    </style>
  </defs>
  <g id="_图层_1-2" data-name="图层 1">
    <g>
      <path class="cls-1" d="M14.13,28.55c.25-3.21.91-6.5,1.92-9.72.22-.71.66-1.2,1.35-1.53,3.07-1.46,6.27-2.56,9.6-3.27.72-.15,1.34-.03,1.92.38,2.84,1.98,5.41,4.26,7.72,6.84.46.52.65,1.11.6,1.8-.24,3.5-.93,6.92-1.98,10.27-.2.63-.61,1.08-1.2,1.37-3.14,1.51-6.41,2.63-9.82,3.34-.65.14-1.23,0-1.78-.38-2.84-1.98-5.42-4.25-7.71-6.84-.61-.69-.69-.99-.61-2.25Z"/>
      <path class="cls-1" d="M51.24,21.9c0,.66-.23,1.14-.61,1.57-2.94,3.26-6.28,6.03-10.04,8.29-.24.15-.48.35-.79.14-.36-.24-.17-.56-.09-.84,2.33-8.91,1.99-17.71-1.05-26.4-.1-.28-.28-.59.08-.84.31-.22.54.01.77.16,6.5,4.15,10.32,10.07,11.69,17.62.02.13.04.26.05.3Z"/>
      <path class="cls-1" d="M13.2,37.31c0-.52,0-1.04,0-1.57,0-.31-.08-.66.31-.8.34-.13.52.15.72.35,1.72,1.72,3.56,3.3,5.54,4.71,5.36,3.83,11.29,6.35,17.77,7.58.31.06.67.05.75.44.09.45-.32.55-.61.69-6.67,3.44-13.54,3.84-20.62,1.44-.99-.33-1.55-.95-1.83-1.93-.52-1.78-.99-3.56-1.33-5.39-.34-1.83-.54-3.67-.7-5.52Z"/>
      <path class="cls-1" d="M11.38,19.65c.53.1.58.36.46.81-.53,1.97-.93,3.96-1.19,5.98-.89,6.96-.15,13.75,2.12,20.38.11.32.42.67.03.99-.39.32-.69-.06-.97-.24C5.53,43.49,1.79,37.7.36,30.37c-.17-.88,0-1.62.62-2.31,2.89-3.16,6.15-5.87,9.82-8.09.2-.12.41-.23.59-.32Z"/>
      <path class="cls-1" d="M51.51,27.43c-.55,7.27-3.59,13.29-9.07,18.09-.73.64-1.49.87-2.45.66-4.14-.94-8.09-2.39-11.81-4.44-.28-.16-.71-.25-.69-.66.03-.47.48-.47.83-.56,8.71-2.43,16.04-7.03,21.99-13.84.25-.29.43-.82.96-.59.52.23.24.73.26,1.12,0,.08-.01.16-.02.23Z"/>
      <path class="cls-1" d="M25.77,0c3,0,5.91.52,8.75,1.52.88.31,1.44.85,1.72,1.75,1.27,4.09,2,8.26,2.06,12.54,0,.32.14.72-.29.88-.38.15-.57-.18-.78-.39-6.47-6.39-14.17-10.47-23.1-12.2-.1-.02-.2-.05-.31-.06-.27-.04-.54-.09-.61-.4-.08-.36.2-.49.46-.63,1.82-.98,3.73-1.75,5.73-2.25C21.49.24,23.62,0,25.77,0Z"/>
      <path class="cls-1" d="M.03,24.19c.42-6.58,3.04-12.17,7.69-16.81,2.31-2.31,2.34-2.29,5.51-1.47,3.53.91,6.88,2.24,10.07,4.01.3.17.77.25.7.73-.07.47-.54.43-.88.52-8.69,2.42-15.99,7.04-21.93,13.82-.24.27-.41.78-.89.62-.52-.17-.2-.68-.28-1.03-.03-.12,0-.26,0-.39Z"/>
    </g>
  </g>
</svg>