<?xml version="1.0" encoding="UTF-8"?>
<svg id="_图层_2" data-name="图层 2" xmlns="http://www.w3.org/2000/svg" viewBox="0 0 31 42.84">
  <defs>
    <style>
      .cls-1 {
        fill: #444;
      }
    </style>
  </defs>
  <g id="_图层_1-2" data-name="图层 1">
    <g>
      <path class="cls-1" d="M16.84.05c8.75.77,15.19,8.87,14.02,17.56-.94,7.05-7.33,16.25-11.77,21.73-.66.82-1.42,1.79-2.13,2.55-1.18,1.26-1.75,1.26-2.93,0-1.42-1.52-2.91-3.51-4.17-5.19C5.45,30.83-.53,21.73.04,14.12.58,6.84,6.88.73,14.08.05c.71-.07,2.05-.06,2.76,0ZM15.48,2.84c-6.74.02-12.36,5.4-12.68,12.12-.24,4.94,3.34,11.26,5.98,15.32,2,3.07,4.25,5.97,6.56,8.82l.2.12c2.76-3.33,5.44-6.83,7.69-10.53s5.14-9.14,4.99-13.57c-.23-6.81-5.92-12.3-12.74-12.28Z"/>
      <path class="cls-1" d="M14.9,7.76c6.14-.47,10.42,6.1,7.44,11.52-2.78,5.06-10,5.44-13.26.67-3.39-4.95-.15-11.73,5.82-12.19ZM19.07,19.06c4.63-4.73-2.48-11.67-7.12-7.07-4.69,4.64,2.51,11.78,7.12,7.07Z"/>
    </g>
  </g>
</svg>