<?xml version="1.0" encoding="UTF-8"?>
<svg id="_图层_2" data-name="图层 2" xmlns="http://www.w3.org/2000/svg" viewBox="0 0 42.6 42.76">
  <defs>
    <style>
      .cls-1 {
        fill: #444;
      }
    </style>
  </defs>
  <g id="_图层_1-2" data-name="图层 1">
    <path class="cls-1" d="M9.11.01c.32.04,1.04.3,1.34.46,1.29.65,5.41,4.94,6.55,6.22,3.45,3.89.17,6.3-2.59,9.01-.15.15-.54.32-.54.54,0,.08.33.79.4.94.9,1.8,2.6,3.88,3.98,5.37,2.29,2.48,5.1,4.81,8.17,6.24.23-.04,2.89-2.94,3.39-3.37,1.74-1.49,3.78-1.65,5.59-.17,2.11,1.73,4,4.29,6.09,6.09,2.94,3.6-.66,6.43-3.09,8.85-3.6,3.6-7.62,2.86-12.04,1.19-9.14-3.46-17.54-11.16-22.41-19.56C1.72,17.96-1.38,10.97.67,6.63,1.31,5.29,5.01,1.45,6.3.67c.49-.29,1.04-.45,1.56-.65.4.03.86-.05,1.25,0ZM8.26,2.2c-.16.02-.47.14-.62.22-.72.35-4.05,3.69-4.57,4.44-2.57,3.68,1.18,11.27,3.26,14.67,3.9,6.38,9.67,12.03,16.22,15.65,3.05,1.69,8.94,4.41,12.35,3,1.23-.51,2.13-1.78,3.05-2.71,1.27-1.29,3.48-2.63,1.91-4.66-1.97-1.7-3.8-4.21-5.79-5.81-.56-.45-1.1-.66-1.84-.5-1.11.24-3.47,3.3-4.55,4.13-.73.57-1.25.62-2.1.27-4.34-1.8-10.2-7.57-12.61-11.58-.47-.79-1.5-2.57-1.4-3.45.03-.31.25-.67.43-.91,1.1-1.16,2.52-2.26,3.54-3.47.81-.96,1.03-1.83.21-2.88-1.8-1.62-3.35-3.6-5.13-5.21-.66-.6-1.38-1.34-2.36-1.19Z"/>
  </g>
</svg>