<?xml version="1.0" encoding="UTF-8"?>
<svg id="_图层_2" data-name="图层 2" xmlns="http://www.w3.org/2000/svg" viewBox="0 0 52.49 51.22">
  <defs>
    <style>
      .cls-1 {
        fill: #7f7f7f;
      }

      .cls-2 {
        fill: #bcbcbc;
      }
    </style>
  </defs>
  <g id="_图层_1-2" data-name="图层 1">
    <g>
      <path class="cls-2" d="M42.44.25H10.05C4.64.25.25,4.64.25,10.05v31.24c0,5.41,4.39,9.8,9.8,9.8h32.39c5.41,0,9.8-4.39,9.8-9.8V10.05c0-5.41-4.39-9.8-9.8-9.8ZM26.1,25.62c-.99,1.86-2.59,2.99-4.6,3.57-1.67.48-3.37.55-5.09.5-.28,0-.57,0-.85-.03-.23-.02-.28.07-.28.29,0,1.26,0,2.52,0,3.78,0,.91,0,1.82,0,2.72,0,.42-.06.48-.46.48-1.27,0-2.54,0-3.81,0-.4,0-.43-.04-.43-.43,0-3.67,0-7.35,0-11.02,0-3.64,0-7.29,0-10.93,0-.48,0-.47.46-.48,2.12-.04,4.23-.1,6.35-.12,1.61-.02,3.2.13,4.72.71,2.65,1.02,4.3,2.89,4.75,5.72.29,1.82.11,3.59-.76,5.23ZM41.9,32.26c-.15,2.37-1.78,4.08-4.1,4.74-1.67.47-3.37.47-5.07.27-1.05-.12-2.08-.35-3.06-.79-.27-.12-.38-.29-.38-.58.01-.58,0-1.17,0-1.76,0-.58,0-1.15,0-1.73,0-.43.07-.47.44-.27,1.9,1.02,3.92,1.45,6.06,1.23.29-.03.57-.11.84-.24.61-.29.76-1.01.33-1.52-.33-.39-.78-.59-1.23-.8-1.1-.5-2.26-.85-3.31-1.46-.93-.54-1.77-1.16-2.36-2.07-1.21-1.87-.87-4.53.78-6.14,1.01-.99,2.26-1.5,3.63-1.7,1.75-.25,3.5-.13,5.23.23.29.06.57.19.87.26.34.09.46.3.46.64,0,1.09,0,2.18,0,3.27,0,.4-.2.53-.57.34-.69-.35-1.41-.59-2.17-.73-1.08-.2-2.17-.37-3.27-.17-.52.1-1,.25-1.13.85-.14.63.26.99.72,1.27.67.41,1.4.71,2.14.98,1.22.45,2.4,1,3.44,1.81,1.31,1.03,1.82,2.41,1.71,4.05Z"/>
      <path class="cls-2" d="M19.64,18.45c-1.37-.37-2.76-.19-4.15-.21-.21,0-.19.15-.19.3,0,1.12,0,2.24,0,3.36s0,2.26,0,3.39c0,.21.05.28.26.29,1.37.07,2.73.08,4.08-.31,1.56-.45,2.38-1.37,2.59-2.97.25-1.89-.75-3.35-2.58-3.84Z"/>
      <path class="cls-1" d="M42.77,51.22H9.71c-5.36,0-9.71-4.36-9.71-9.71V9.71C0,4.36,4.36,0,9.71,0h33.06c5.36,0,9.71,4.36,9.71,9.71v31.8c0,5.36-4.36,9.71-9.71,9.71ZM9.71.5C4.64.5.5,4.64.5,9.71v31.8c0,5.08,4.13,9.21,9.21,9.21h33.06c5.08,0,9.21-4.13,9.21-9.21V9.71c0-5.08-4.13-9.21-9.21-9.21H9.71Z"/>
    </g>
  </g>
</svg>