<?xml version="1.0" encoding="UTF-8"?>
<svg id="_图层_2" data-name="图层 2" xmlns="http://www.w3.org/2000/svg" viewBox="0 0 65.09 49.1">
  <defs>
    <style>
      .cls-1 {
        fill: #bcbcbc;
      }
    </style>
  </defs>
  <g id="_图层_1-2" data-name="图层 1">
    <g>
      <path class="cls-1" d="M11.4,11.67c.04-2.78-.54-5.37-2.38-7.56-.69-.83-.47-1.37.53-1.65,2.68-.76,5.35-1.58,8.05-2.25,2.32-.57,3.15.02,3.74,2.35.86,3.43.17,6.71-1.03,9.92-1.04,2.78-2.43,5.39-4.17,7.79-.49.67-.38,1.06.17,1.57,1.45,1.37,1.99,1.39,3.26-.05,3.73-4.2,5.47-9.25,6.19-14.71.13-1,.21-2.02.25-3.03.04-1.04.52-1.13,1.32-.73.08.04.15.08.22.13,4.21,3.23,7.13,7.28,7.93,12.65.24,1.62-.38,2.86-1.72,3.81-3.44,2.43-7.15,4.3-11.14,5.65-1.59.53-1.57.56-.73,1.99,1.61,2.76,2.47,5.73,2.46,8.93,0,.51.22,1.27-.44,1.45-.68.19-.84-.58-1.09-1.02-1.51-2.66-3.25-5.15-5.49-7.24-4.44-4.15-9.56-5.74-15.52-4.08-.96.27-1.54-.02-1.7-.92-.41-2.39.4-4.59,1.32-6.72.25-.58,1-.56,1.59-.59,2.18-.11,4.3.29,6.37.92.8.24,1.01.04,1.19-.69.46-1.94.82-3.88.82-5.88Z"/>
      <path class="cls-1" d="M41.17,44.61c.45.84,1.23,1.38,1.86,2.05.36.38.66.78.7,1.31.06.88-.6,1.36-1.4,1-.26-.12-.51-.3-.71-.51-3.82-3.99-8.48-6.8-13.23-9.5-.66-.37-1.33-.74-1.95-1.18-.71-.51-1.08-1.23-.76-2.1.63-1.72.62-3.47.41-5.25-.03-.26-.21-.66.12-.79.41-.15.73.18.93.51.55.88.55,1.91.32,2.83-.59,2.42.15,3.62,2.87,4.66,3.51,1.35,3.88,1.17,5.11-2.35.7-2,2.71-3.31,4.95-3.23.35.01.72.21,1.15-.12-2.49-1.44-4.65.18-6.99.53.36.65.52,1.31-.16,1.79-.68.49-1.25.11-1.83-.31-.85-.63-1.73-1.21-2.62-1.77-1.36-.86-1.38-.96-.29-2.12.16-.17.43-.29.42-.74-1-.08-2.03-.16-3.05-.26-1.81-.18-2.39-1.37-1.43-2.92.55-.9,1.35-1.52,2.34-1.86,2.59-.89,4.89-2.26,7-3.99,1.69-1.38,2.25-1.21,2.95.81.27.8.51,1.61.76,2.41.77,2.53,4.38,5.03,7.48,3.08.49-.31,1.08-.48,1.63-.68.46-.17,1.02-.46,1.4.03.37.48-.06.97-.3,1.39-.7,1.22-1.62,2.27-2.53,3.32-.84.96-.6,1.67.67,1.87,1.35.21,2.6-.21,3.78-.82,4.49-2.32,8.52-5.32,12.42-8.5.49-.4.97-1.28,1.63-.8.59.43.05,1.26-.14,1.88-.41,1.41-1.32,2.54-2.24,3.64-3.18,3.81-6.85,7.13-10.59,10.37-1.48,1.29-2.63,2.66-2.98,4.68-.3,1.76-1.23,3.22-2.68,4.31-.4.3-.85.65-1.35.17-.63-.61-1.5-1.09-1.54-2.07-.02-.65,1.1-.88,1.77-.41.52.36.6.98.89,1.55.6-1.21.97-2.35-.03-3.46-.69-.75-1.43-1.57-2.59-1.17-1.3.44-1.32,1.61-1.3,2.75-.4.11-.34-.43-.64-.41-.1-.18-.28-.37-.44-.18-.21.23.06.39.21.55ZM31.54,30.8c-.31.02-.57.01-.72.28-.16.27-.06.5.15.66.57.43,1.14.86,1.73,1.26.22.15.48.14.69-.06.21-.2.26-.43.08-.67-.52-.69-1.16-1.2-1.93-1.47Z"/>
    </g>
  </g>
</svg>