<?xml version="1.0" encoding="UTF-8"?>
<svg id="_图层_2" data-name="图层 2" xmlns="http://www.w3.org/2000/svg" viewBox="0 0 57.12 57.06">
  <defs>
    <style>
      .cls-1 {
        fill: #bcbcbc;
      }
    </style>
  </defs>
  <g id="_图层_1-2" data-name="图层 1">
    <g>
      <path class="cls-1" d="M0,31.31c0-1.9,0-3.79,0-5.69.28-.02.18-.24.19-.38.78-6.52,3.43-12.17,8.08-16.79C14.78,1.99,22.68-.81,31.81.2c8.11.9,14.71,4.7,19.56,11.24,5.74,7.75,7.16,16.38,4.39,25.61-3.2,10.67-12.88,18.62-23.92,19.81-.17.02-.42-.08-.51.2h-5.69c0-.28-.24-.18-.37-.19-1.59-.17-3.17-.45-4.68-.94C9.54,52.33,2.8,44.84.43,33.45.28,32.74.14,32.02,0,31.31ZM4.38,28.48c.04,13.39,10.77,23.93,23.75,24.12,13.4.2,24.22-10.5,24.48-23.61.27-13.45-10.43-24.52-23.85-24.62-13.53-.1-24.37,10.69-24.38,24.1Z"/>
      <path class="cls-1" d="M30.76,17.55c1.23.02,2.19.31,2.91,1.22,2.68-3.05,6.24-4.47,10.04-5.6-.04.39-.27.57-.43.78-1.18,1.6-2.37,3.19-3.3,4.96-.34.64-.48,1.3-.48,2.03.02,4.92,0,9.85,0,14.77,0,.86.18,1.1,1,1.37.67.22,1.32.23,2.01-.03,1.99-.77,3.74-1.89,5.19-3.46.12-.13.24-.28.4-.47.15.32-.02.5-.11.67-.94,1.86-2.22,3.47-3.64,4.97-1.9,2-4.06,3.64-6.52,4.89-.35.17-.62.2-.98,0-1.17-.61-2.36-1.18-3.53-1.79-.3-.16-.48-.12-.71.12-1.2,1.22-2.42,2.41-3.61,3.64-.31.32-.6.46-1.06.39-3.74-.56-7.27-1.65-10.28-4.06-.84-.67-1.58-1.44-2.22-2.41.75-.03,1.42.12,2.1.04.26-.03.52-.04.77-.1,1.11-.24,1.39-.59,1.39-1.71,0-4.18,0-8.36,0-12.54,0-.11,0-.22,0-.33-.02-1.36-.73-1.93-2.07-1.59-1.4.35-2.48,1.23-3.49,2.21-1.99,1.94-3.5,4.23-4.9,6.6-.11.19-.23.37-.42.68-.04-1.36.12-2.56.39-3.74,1.29-5.65,4.48-10.04,9.02-13.52,2.75-2.1,5.81-3.57,9.19-4.36.13-.03.25-.06.38-.08.09,0,.18.01.28.02-.05.26-.27.31-.42.43-1.05.81-2.06,1.65-2.83,2.74-.84,1.18-.86,3.56-.05,4.76.3.44.68.75,1.24.71.3-.02.32.12.32.36-.02,4.74-.04,9.47-.06,14.21,0,.32,0,.63,0,.95.03,1.45,1,2.25,2.44,1.95,1.43-.29,2.75-.89,3.97-1.7.2-.13.25-.29.25-.51,0-4.33.03-8.66-.02-12.99-.02-1.6-.76-2.96-1.82-4.15-.07-.08-.15-.16-.33-.35Z"/>
    </g>
  </g>
</svg>