<?xml version="1.0" encoding="UTF-8"?>
<svg id="_图层_2" data-name="图层 2" xmlns="http://www.w3.org/2000/svg" viewBox="0 0 52.49 51.22">
  <defs>
    <style>
      .cls-1 {
        fill: #7f7f7f;
      }

      .cls-2 {
        fill: #bcbcbc;
      }
    </style>
  </defs>
  <g id="_图层_1-2" data-name="图层 1">
    <g>
      <g>
        <path class="cls-2" d="M39.4,29.12c0-1.5,0-3,0-4.51,0-.2-.05-.29-.25-.33-1.34-.27-2.6-.06-3.72.72-1.68,1.17-2.31,2.83-2.14,4.83.26,2.93,2.97,4.86,5.81,4.14.23-.06.3-.14.3-.38-.01-1.49,0-2.98,0-4.48Z"/>
        <path class="cls-2" d="M42.44.25H10.05C4.64.25.25,4.64.25,10.05v31.24c0,5.41,4.39,9.8,9.8,9.8h32.39c5.41,0,9.8-4.39,9.8-9.8V10.05c0-5.41-4.39-9.8-9.8-9.8ZM28.02,37.67c-.08.16-.25.1-.38.1-1.57,0-3.15,0-4.72,0-.39,0-.63-.13-.81-.49-1.27-2.62-2.67-5.18-4.04-7.74-.04-.08-.09-.15-.16-.27-.33.63-.64,1.24-.96,1.84-1.09,2.07-2.18,4.13-3.26,6.21-.18.35-.4.48-.8.47-1.43-.02-2.86,0-4.3-.01-.11,0-.26.06-.33-.08-.06-.13.05-.23.11-.33,1.36-2.3,2.73-4.59,4.09-6.89.77-1.29,1.53-2.58,2.3-3.87.08-.14.09-.24,0-.38-2.06-3.57-4.12-7.14-6.18-10.71-.03-.05-.06-.1-.09-.16-.14-.26-.09-.36.2-.36.28,0,.56,0,.85,0,1.25,0,2.5,0,3.75,0,.38,0,.61.13.77.49.89,2.03,2.01,3.95,3.08,5.89.39.69.75,1.4,1.12,2.16.56-1.12,1.1-2.2,1.64-3.26.86-1.69,1.78-3.34,2.61-5.05.07-.15.19-.23.36-.23,1.46,0,2.93,0,4.39,0,.3,0,.37.18.19.48-.49.84-.99,1.68-1.49,2.53-1.51,2.56-3.02,5.12-4.55,7.67-.17.29-.17.49,0,.78,2.17,3.61,4.32,7.24,6.47,10.86.07.11.18.22.12.36ZM43.91,36.91c-2.58,1.04-5.25,1.53-8.02,1.22-2.54-.28-4.67-1.36-6.12-3.55-.71-1.07-1.08-2.27-1.23-3.54-.2-1.62-.15-3.22.39-4.78.96-2.75,2.85-4.55,5.58-5.5,1.48-.52,3.01-.65,4.56-.55.28.02.33-.06.33-.32-.01-2.12,0-4.24,0-6.36,0-.42,0-.43.42-.43,1.28,0,2.56,0,3.84,0q.43,0,.43.44c0,3.6,0,7.2,0,10.8,0,2.96,0,5.91,0,8.87,0,1.05.05,2.1.14,3.14.03.27-.07.44-.32.54Z"/>
      </g>
      <path class="cls-1" d="M42.77,51.22H9.71c-5.36,0-9.71-4.36-9.71-9.71V9.71C0,4.36,4.36,0,9.71,0h33.06c5.36,0,9.71,4.36,9.71,9.71v31.8c0,5.36-4.36,9.71-9.71,9.71ZM9.71.5C4.64.5.5,4.64.5,9.71v31.8c0,5.08,4.13,9.21,9.21,9.21h33.06c5.08,0,9.21-4.13,9.21-9.21V9.71c0-5.08-4.13-9.21-9.21-9.21H9.71Z"/>
    </g>
  </g>
</svg>